<?xml version="1.0" standalone="no"?>
<!DOCTYPE svg PUBLIC "-//W3C//DTD SVG 20010904//EN"
 "http://www.w3.org/TR/2001/REC-SVG-20010904/DTD/svg10.dtd">
<svg version="1.0" xmlns="http://www.w3.org/2000/svg"
 width="224.000000pt" height="60.000000pt" viewBox="0 0 224.000000 60.000000"
 preserveAspectRatio="xMidYMid meet">

<g transform="translate(0.000000,60.000000) scale(0.100000,-0.100000)"
fill="#000000" stroke="none">
<path d="M1640 295 c0 -104 2 -125 15 -125 11 0 15 12 15 43 1 35 3 39 13 26
47 -60 58 -70 72 -67 14 2 9 13 -20 51 l-37 49 33 34 c25 26 29 34 16 34 -10
0 -31 -15 -47 -32 l-29 -33 -1 73 c0 57 -3 72 -15 72 -13 0 -15 -21 -15 -125z"/>
<path d="M1802 298 c2 -86 7 -123 16 -126 9 -3 12 26 12 122 0 106 -2 126 -15
126 -13 0 -15 -18 -13 -122z"/>
<path d="M210 290 c0 -100 3 -120 15 -120 12 0 15 13 15 55 l0 55 55 0 55 0 0
-55 c0 -42 3 -55 15 -55 13 0 15 20 15 120 0 100 -2 120 -15 120 -11 0 -15
-12 -15 -50 l0 -50 -55 0 -55 0 0 50 c0 38 -4 50 -15 50 -12 0 -15 -20 -15
-120z"/>
<path d="M1370 395 c0 -10 11 -15 35 -15 l35 0 0 -105 c0 -87 3 -105 15 -105
12 0 15 18 15 105 l0 105 35 0 c24 0 35 5 35 15 0 12 -16 15 -85 15 -69 0 -85
-3 -85 -15z"/>
<path d="M479 339 c-49 -18 -65 -96 -28 -143 18 -23 27 -27 67 -24 26 2 47 8
50 16 3 10 -5 12 -32 6 -28 -5 -41 -2 -56 11 -36 33 -25 45 40 45 57 0 60 1
60 24 0 49 -52 83 -101 65z m59 -31 c25 -25 13 -38 -33 -38 -49 0 -50 1 -35
31 12 21 50 25 68 7z"/>
<path d="M682 340 c-12 -5 -29 -7 -37 -4 -13 5 -15 -8 -15 -80 0 -69 3 -86 15
-86 11 0 15 16 17 66 3 70 18 94 52 81 13 -5 16 -21 16 -77 0 -56 3 -70 15
-70 12 0 15 13 15 58 0 47 4 63 21 78 35 31 53 9 57 -70 2 -50 6 -66 17 -66
12 0 15 15 15 64 0 79 -6 95 -38 107 -18 7 -31 5 -49 -6 -21 -14 -26 -14 -45
0 -25 17 -25 17 -56 5z"/>
<path d="M962 340 c-35 -14 -56 -73 -42 -116 7 -19 20 -39 30 -44 33 -18 110
-10 110 11 0 5 -18 6 -40 3 -44 -7 -70 6 -70 37 0 16 8 19 55 19 54 0 55 0 55
29 0 28 -22 61 -40 61 -5 0 -14 2 -22 4 -7 3 -23 1 -36 -4z m66 -47 c3 -21 -1
-23 -37 -23 -27 0 -41 4 -41 13 0 41 72 50 78 10z"/>
<path d="M1166 335 c-14 -8 -26 -10 -26 -4 0 5 -7 9 -15 9 -12 0 -15 -16 -15
-85 0 -69 3 -85 15 -85 12 0 15 13 15 59 0 41 5 65 16 75 38 39 64 10 64 -71
0 -49 3 -63 15 -63 12 0 15 14 15 68 0 92 -29 125 -84 97z"/>
<path d="M1913 340 c-36 -15 -27 -27 20 -26 36 1 42 -2 45 -21 3 -19 -1 -23
-25 -23 -57 0 -95 -54 -61 -88 16 -16 70 -16 86 0 9 9 12 9 12 0 0 -7 5 -12
10 -12 15 0 13 145 -3 158 -19 16 -60 22 -84 12z m67 -108 c0 -23 -19 -42 -42
-42 -24 0 -34 26 -18 45 18 22 60 19 60 -3z"/>
<path d="M1550 255 c0 -69 3 -85 15 -85 12 0 15 16 15 85 0 69 -3 85 -15 85
-12 0 -15 -16 -15 -85z"/>
</g>
</svg>
